<svg xmlns="http://www.w3.org/2000/svg" width="980" height="450" viewBox="0 0 980 450">
  <rect width="980" height="450" rx="10" fill="#0E1118" />
  <text x="18" y="34" fill="#F7FAFF" font-family="system-ui, sans-serif" font-size="22">Tokenizer latency comparison</text>
  <text x="18" y="58" fill="#7F8796" font-family="system-ui, sans-serif" font-size="14">Latency in milliseconds, lower is better</text>
  <text x="18" y="103" fill="#D9E1F2" font-family="system-ui, sans-serif" font-size="14">LiquidAI/LFM2.5-1.2B-Instruct</text>
<rect x="330" y="78" width="555.89" height="14" rx="4" fill="#5D6472" />
<text x="895.8939605341837" y="89" fill="#A7B0C3" font-family="system-ui, sans-serif" font-size="12">HF: 64.0 ms</text>

<rect x="330" y="96" width="40.64" height="14" rx="4" fill="#5A9BF6" />
<text x="380.6359805233634" y="107" fill="#A7B0C3" font-family="system-ui, sans-serif" font-size="12">IREE oneshot: 4.68 ms</text>

<rect x="330" y="114" width="41.42" height="14" rx="4" fill="#35C296" />
<text x="381.4176087018423" y="125" fill="#A7B0C3" font-family="system-ui, sans-serif" font-size="12">IREE stream: 4.77 ms</text>

<text x="18" y="171" fill="#D9E1F2" font-family="system-ui, sans-serif" font-size="14">Qwen/Qwen3.5-9B</text>
<rect x="330" y="146" width="610.0" height="14" rx="4" fill="#5D6472" />
<text x="950.0" y="157" fill="#A7B0C3" font-family="system-ui, sans-serif" font-size="12">HF: 70.2 ms</text>

<rect x="330" y="164" width="42.85" height="14" rx="4" fill="#5A9BF6" />
<text x="382.85059369572025" y="175" fill="#A7B0C3" font-family="system-ui, sans-serif" font-size="12">IREE oneshot: 4.93 ms</text>

<rect x="330" y="182" width="98.0" height="14" rx="4" fill="#35C296" />
<text x="437.998804066175" y="193" fill="#A7B0C3" font-family="system-ui, sans-serif" font-size="12">IREE stream: 11.3 ms</text>

<text x="18" y="239" fill="#D9E1F2" font-family="system-ui, sans-serif" font-size="14">zai-org/GLM-5.1</text>
<rect x="330" y="214" width="547.66" height="14" rx="4" fill="#5D6472" />
<text x="887.6608103875395" y="225" fill="#A7B0C3" font-family="system-ui, sans-serif" font-size="12">HF: 63.1 ms</text>

<rect x="330" y="232" width="41.18" height="14" rx="4" fill="#5A9BF6" />
<text x="381.1831202482986" y="243" fill="#A7B0C3" font-family="system-ui, sans-serif" font-size="12">IREE oneshot: 4.74 ms</text>

<rect x="330" y="250" width="48.59" height="14" rx="4" fill="#35C296" />
<text x="388.59121842877073" y="261" fill="#A7B0C3" font-family="system-ui, sans-serif" font-size="12">IREE stream: 5.59 ms</text>

<text x="18" y="307" fill="#D9E1F2" font-family="system-ui, sans-serif" font-size="14">mistralai/Ministral-3-3B-Reasoning-2512</text>
<rect x="330" y="282" width="547.44" height="14" rx="4" fill="#5D6472" />
<text x="887.4350066915345" y="293" fill="#A7B0C3" font-family="system-ui, sans-serif" font-size="12">HF: 63.0 ms</text>

<rect x="330" y="300" width="40.76" height="14" rx="4" fill="#5A9BF6" />
<text x="380.7575671289046" y="311" fill="#A7B0C3" font-family="system-ui, sans-serif" font-size="12">IREE oneshot: 4.69 ms</text>

<rect x="330" y="318" width="49.14" height="14" rx="4" fill="#35C296" />
<text x="389.13835815370595" y="329" fill="#A7B0C3" font-family="system-ui, sans-serif" font-size="12">IREE stream: 5.66 ms</text>

<text x="18" y="375" fill="#D9E1F2" font-family="system-ui, sans-serif" font-size="14">google/gemma-4-31B-it</text>
<rect x="330" y="350" width="174.31" height="14" rx="4" fill="#5D6472" />
<text x="514.3117685583303" y="361" fill="#A7B0C3" font-family="system-ui, sans-serif" font-size="12">HF: 20.1 ms</text>

<rect x="330" y="368" width="29.42" height="14" rx="4" fill="#5A9BF6" />
<text x="369.4152737834221" y="379" fill="#A7B0C3" font-family="system-ui, sans-serif" font-size="12">IREE oneshot: 3.39 ms</text>

<rect x="330" y="386" width="33.05" height="14" rx="4" fill="#35C296" />
<text x="373.0541871921182" y="397" fill="#A7B0C3" font-family="system-ui, sans-serif" font-size="12">IREE stream: 3.81 ms</text>

</svg>
