<svg xmlns="http://www.w3.org/2000/svg" width="980" height="458" viewBox="0 0 980 458">
  <rect width="980" height="458" rx="10" fill="#0E1118" />
  <text x="18" y="34" fill="#F7FAFF" font-family="system-ui, sans-serif" font-size="22">IREE speedup vs elixir-nx/tokenizers</text>
  <text x="18" y="58" fill="#7F8796" font-family="system-ui, sans-serif" font-size="14">Speedup relative to elixir-nx/tokenizers, higher is better</text>
  <text x="18" y="100" fill="#D9E1F2" font-family="system-ui, sans-serif" font-size="14">LiquidAI/LFM2.5-1.2B-Instruct</text>
<rect x="330" y="78" width="176.52" height="16" rx="4" fill="#5A9BF6" />
<text x="516.521759659051" y="91" fill="#A7B0C3" font-family="system-ui, sans-serif" font-size="12">3.9x oneshot</text>
<rect x="330" y="100" width="554.8" height="16" rx="4" fill="#35C296" />
<text x="894.79771340953" y="113" fill="#A7B0C3" font-family="system-ui, sans-serif" font-size="12">12.2x stream</text>

<text x="18" y="158" fill="#D9E1F2" font-family="system-ui, sans-serif" font-size="14">Qwen/Qwen3.5-9B</text>
<rect x="330" y="136" width="289.92" height="16" rx="4" fill="#5A9BF6" />
<text x="629.9210702395274" y="149" fill="#A7B0C3" font-family="system-ui, sans-serif" font-size="12">6.4x oneshot</text>
<rect x="330" y="158" width="294.43" height="16" rx="4" fill="#35C296" />
<text x="634.434617245214" y="171" fill="#A7B0C3" font-family="system-ui, sans-serif" font-size="12">6.5x stream</text>

<text x="18" y="216" fill="#D9E1F2" font-family="system-ui, sans-serif" font-size="14">zai-org/GLM-5.1</text>
<rect x="330" y="194" width="251.24" height="16" rx="4" fill="#5A9BF6" />
<text x="591.2443000915014" y="207" fill="#A7B0C3" font-family="system-ui, sans-serif" font-size="12">5.5x oneshot</text>
<rect x="330" y="216" width="488.26" height="16" rx="4" fill="#35C296" />
<text x="828.2620626823589" y="229" fill="#A7B0C3" font-family="system-ui, sans-serif" font-size="12">10.7x stream</text>

<text x="18" y="274" fill="#D9E1F2" font-family="system-ui, sans-serif" font-size="14">mistralai/Ministral-3-3B-Reasoning-2512</text>
<rect x="330" y="252" width="333.04" height="16" rx="4" fill="#5A9BF6" />
<text x="673.0407784986098" y="265" fill="#A7B0C3" font-family="system-ui, sans-serif" font-size="12">7.3x oneshot</text>
<rect x="330" y="274" width="610.0" height="16" rx="4" fill="#35C296" />
<text x="950.0" y="287" fill="#A7B0C3" font-family="system-ui, sans-serif" font-size="12">13.4x stream</text>

<text x="18" y="332" fill="#D9E1F2" font-family="system-ui, sans-serif" font-size="14">BAAI/bge-m3</text>
<rect x="330" y="310" width="91.86" height="16" rx="4" fill="#5A9BF6" />
<text x="431.85560770459614" y="323" fill="#A7B0C3" font-family="system-ui, sans-serif" font-size="12">2.0x oneshot</text>
<rect x="330" y="332" width="148.77" height="16" rx="4" fill="#35C296" />
<text x="488.77495570807434" y="345" fill="#A7B0C3" font-family="system-ui, sans-serif" font-size="12">3.3x stream</text>

<text x="18" y="390" fill="#D9E1F2" font-family="system-ui, sans-serif" font-size="14">google/gemma-4-31B-it</text>
<rect x="330" y="368" width="90.24" height="16" rx="4" fill="#5A9BF6" />
<text x="430.2416619468433" y="381" fill="#A7B0C3" font-family="system-ui, sans-serif" font-size="12">2.0x oneshot</text>
<rect x="330" y="390" width="244.93" height="16" rx="4" fill="#35C296" />
<text x="584.9314277853904" y="403" fill="#A7B0C3" font-family="system-ui, sans-serif" font-size="12">5.4x stream</text>

</svg>
