<svg xmlns="http://www.w3.org/2000/svg" width="980" height="806" viewBox="0 0 980 806">
  <rect width="980" height="806" rx="10" fill="#0E1118" />
  <text x="18" y="34" fill="#F7FAFF" font-family="system-ui, sans-serif" font-size="22">IREE speedup vs elixir-nx/tokenizers</text>
  <text x="18" y="58" fill="#7F8796" font-family="system-ui, sans-serif" font-size="14">Speedup relative to elixir-nx/tokenizers, higher is better</text>
  <text x="18" y="100" fill="#D9E1F2" font-family="system-ui, sans-serif" font-size="14">LiquidAI/LFM2.5-1.2B-Instruct</text>
<rect x="330" y="78" width="576.84" height="16" rx="4" fill="#5A9BF6" />
<text x="916.8419453947259" y="91" fill="#A7B0C3" font-family="system-ui, sans-serif" font-size="12">13.3x oneshot</text>
<rect x="330" y="100" width="569.59" height="16" rx="4" fill="#35C296" />
<text x="909.5923608155506" y="113" fill="#A7B0C3" font-family="system-ui, sans-serif" font-size="12">13.2x stream</text>

<text x="18" y="158" fill="#D9E1F2" font-family="system-ui, sans-serif" font-size="14">Qwen/Qwen3.5-9B</text>
<rect x="330" y="136" width="577.77" height="16" rx="4" fill="#5A9BF6" />
<text x="917.7658661359451" y="149" fill="#A7B0C3" font-family="system-ui, sans-serif" font-size="12">13.4x oneshot</text>
<rect x="330" y="158" width="277.37" height="16" rx="4" fill="#35C296" />
<text x="617.3695778599072" y="171" fill="#A7B0C3" font-family="system-ui, sans-serif" font-size="12">6.4x stream</text>

<text x="18" y="216" fill="#D9E1F2" font-family="system-ui, sans-serif" font-size="14">zai-org/GLM-5.1</text>
<rect x="330" y="194" width="543.73" height="16" rx="4" fill="#5A9BF6" />
<text x="883.73390165946" y="207" fill="#A7B0C3" font-family="system-ui, sans-serif" font-size="12">12.6x oneshot</text>
<rect x="330" y="216" width="470.58" height="16" rx="4" fill="#35C296" />
<text x="810.5837537926774" y="229" fill="#A7B0C3" font-family="system-ui, sans-serif" font-size="12">10.9x stream</text>

<text x="18" y="274" fill="#D9E1F2" font-family="system-ui, sans-serif" font-size="14">mistralai/Ministral-3-3B-Reasoning-2512</text>
<rect x="330" y="252" width="610.0" height="16" rx="4" fill="#5A9BF6" />
<text x="950.0" y="265" fill="#A7B0C3" font-family="system-ui, sans-serif" font-size="12">14.1x oneshot</text>
<rect x="330" y="274" width="489.4" height="16" rx="4" fill="#35C296" />
<text x="829.4047829937999" y="287" fill="#A7B0C3" font-family="system-ui, sans-serif" font-size="12">11.3x stream</text>

<text x="18" y="332" fill="#D9E1F2" font-family="system-ui, sans-serif" font-size="14">google/gemma-4-31B-it</text>
<rect x="330" y="310" width="256.55" height="16" rx="4" fill="#5A9BF6" />
<text x="596.5505383285223" y="323" fill="#A7B0C3" font-family="system-ui, sans-serif" font-size="12">5.9x oneshot</text>
<rect x="330" y="332" width="231.17" height="16" rx="4" fill="#35C296" />
<text x="571.1711932582716" y="345" fill="#A7B0C3" font-family="system-ui, sans-serif" font-size="12">5.3x stream</text>

<text x="18" y="390" fill="#D9E1F2" font-family="system-ui, sans-serif" font-size="14">google/gemma-4-31B</text>
<rect x="330" y="368" width="266.33" height="16" rx="4" fill="#5A9BF6" />
<text x="606.3306751286555" y="381" fill="#A7B0C3" font-family="system-ui, sans-serif" font-size="12">6.2x oneshot</text>
<rect x="330" y="390" width="247.72" height="16" rx="4" fill="#35C296" />
<text x="587.718548081395" y="403" fill="#A7B0C3" font-family="system-ui, sans-serif" font-size="12">5.7x stream</text>

<text x="18" y="448" fill="#D9E1F2" font-family="system-ui, sans-serif" font-size="14">google/gemma-4-26B-A4B-it</text>
<rect x="330" y="426" width="238.19" height="16" rx="4" fill="#5A9BF6" />
<text x="578.1937896797003" y="439" fill="#A7B0C3" font-family="system-ui, sans-serif" font-size="12">5.5x oneshot</text>
<rect x="330" y="448" width="217.6" height="16" rx="4" fill="#35C296" />
<text x="557.5961005499702" y="461" fill="#A7B0C3" font-family="system-ui, sans-serif" font-size="12">5.0x stream</text>

<text x="18" y="506" fill="#D9E1F2" font-family="system-ui, sans-serif" font-size="14">google/gemma-4-26B-A4B</text>
<rect x="330" y="484" width="255.48" height="16" rx="4" fill="#5A9BF6" />
<text x="595.4822997215417" y="497" fill="#A7B0C3" font-family="system-ui, sans-serif" font-size="12">5.9x oneshot</text>
<rect x="330" y="506" width="261.67" height="16" rx="4" fill="#35C296" />
<text x="601.6691930196419" y="519" fill="#A7B0C3" font-family="system-ui, sans-serif" font-size="12">6.0x stream</text>

<text x="18" y="564" fill="#D9E1F2" font-family="system-ui, sans-serif" font-size="14">google/gemma-4-E4B-it</text>
<rect x="330" y="542" width="205.53" height="16" rx="4" fill="#5A9BF6" />
<text x="545.5295675643639" y="555" fill="#A7B0C3" font-family="system-ui, sans-serif" font-size="12">4.7x oneshot</text>
<rect x="330" y="564" width="204.55" height="16" rx="4" fill="#35C296" />
<text x="544.5450641412605" y="577" fill="#A7B0C3" font-family="system-ui, sans-serif" font-size="12">4.7x stream</text>

<text x="18" y="622" fill="#D9E1F2" font-family="system-ui, sans-serif" font-size="14">google/gemma-4-E4B</text>
<rect x="330" y="600" width="239.32" height="16" rx="4" fill="#5A9BF6" />
<text x="579.3178253146896" y="613" fill="#A7B0C3" font-family="system-ui, sans-serif" font-size="12">5.5x oneshot</text>
<rect x="330" y="622" width="225.08" height="16" rx="4" fill="#35C296" />
<text x="565.0802497737575" y="635" fill="#A7B0C3" font-family="system-ui, sans-serif" font-size="12">5.2x stream</text>

<text x="18" y="680" fill="#D9E1F2" font-family="system-ui, sans-serif" font-size="14">google/gemma-4-E2B-it</text>
<rect x="330" y="658" width="239.07" height="16" rx="4" fill="#5A9BF6" />
<text x="579.0711574420985" y="671" fill="#A7B0C3" font-family="system-ui, sans-serif" font-size="12">5.5x oneshot</text>
<rect x="330" y="680" width="242.5" height="16" rx="4" fill="#35C296" />
<text x="582.4979784172383" y="693" fill="#A7B0C3" font-family="system-ui, sans-serif" font-size="12">5.6x stream</text>

<text x="18" y="738" fill="#D9E1F2" font-family="system-ui, sans-serif" font-size="14">google/gemma-4-E2B</text>
<rect x="330" y="716" width="255.53" height="16" rx="4" fill="#5A9BF6" />
<text x="595.5331196937109" y="729" fill="#A7B0C3" font-family="system-ui, sans-serif" font-size="12">5.9x oneshot</text>
<rect x="330" y="738" width="242.58" height="16" rx="4" fill="#35C296" />
<text x="582.5785158540855" y="751" fill="#A7B0C3" font-family="system-ui, sans-serif" font-size="12">5.6x stream</text>

</svg>
