<svg xmlns="http://www.w3.org/2000/svg" width="980" height="400" viewBox="0 0 980 400">
  <rect width="980" height="400" rx="10" fill="#0E1118" />
  <text x="18" y="34" fill="#F7FAFF" font-family="system-ui, sans-serif" font-size="22">IREE speedup vs elixir-nx/tokenizers</text>
  <text x="18" y="58" fill="#7F8796" font-family="system-ui, sans-serif" font-size="14">Speedup relative to elixir-nx/tokenizers, higher is better</text>
  <text x="18" y="100" fill="#D9E1F2" font-family="system-ui, sans-serif" font-size="14">LiquidAI/LFM2.5-1.2B-Instruct</text>
<rect x="330" y="78" width="586.19" height="16" rx="4" fill="#5A9BF6" />
<text x="926.1895279494897" y="91" fill="#A7B0C3" font-family="system-ui, sans-serif" font-size="12">13.7x oneshot</text>
<rect x="330" y="100" width="575.13" height="16" rx="4" fill="#35C296" />
<text x="915.1270289946871" y="113" fill="#A7B0C3" font-family="system-ui, sans-serif" font-size="12">13.4x stream</text>

<text x="18" y="158" fill="#D9E1F2" font-family="system-ui, sans-serif" font-size="14">Qwen/Qwen3.5-9B</text>
<rect x="330" y="136" width="610.0" height="16" rx="4" fill="#5A9BF6" />
<text x="950.0" y="149" fill="#A7B0C3" font-family="system-ui, sans-serif" font-size="12">14.2x oneshot</text>
<rect x="330" y="158" width="266.73" height="16" rx="4" fill="#35C296" />
<text x="606.726338177951" y="171" fill="#A7B0C3" font-family="system-ui, sans-serif" font-size="12">6.2x stream</text>

<text x="18" y="216" fill="#D9E1F2" font-family="system-ui, sans-serif" font-size="14">zai-org/GLM-5.1</text>
<rect x="330" y="194" width="569.84" height="16" rx="4" fill="#5A9BF6" />
<text x="909.8351831404724" y="207" fill="#A7B0C3" font-family="system-ui, sans-serif" font-size="12">13.3x oneshot</text>
<rect x="330" y="216" width="482.96" height="16" rx="4" fill="#35C296" />
<text x="822.9595064257587" y="229" fill="#A7B0C3" font-family="system-ui, sans-serif" font-size="12">11.3x stream</text>

<text x="18" y="274" fill="#D9E1F2" font-family="system-ui, sans-serif" font-size="14">mistralai/Ministral-3-3B-Reasoning-2512</text>
<rect x="330" y="252" width="575.55" height="16" rx="4" fill="#5A9BF6" />
<text x="915.5474798670427" y="265" fill="#A7B0C3" font-family="system-ui, sans-serif" font-size="12">13.4x oneshot</text>
<rect x="330" y="274" width="477.38" height="16" rx="4" fill="#35C296" />
<text x="817.384998765647" y="287" fill="#A7B0C3" font-family="system-ui, sans-serif" font-size="12">11.1x stream</text>

<text x="18" y="332" fill="#D9E1F2" font-family="system-ui, sans-serif" font-size="14">google/gemma-4-31B-it</text>
<rect x="330" y="310" width="253.93" height="16" rx="4" fill="#5A9BF6" />
<text x="593.9280384017719" y="323" fill="#A7B0C3" font-family="system-ui, sans-serif" font-size="12">5.9x oneshot</text>
<rect x="330" y="332" width="225.97" height="16" rx="4" fill="#35C296" />
<text x="565.973270117394" y="345" fill="#A7B0C3" font-family="system-ui, sans-serif" font-size="12">5.3x stream</text>

</svg>
