<svg xmlns="http://www.w3.org/2000/svg" width="980" height="400" viewBox="0 0 980 400">
  <rect width="980" height="400" rx="10" fill="#0E1118" />
  <text x="18" y="34" fill="#F7FAFF" font-family="system-ui, sans-serif" font-size="22">IREE speedup vs elixir-nx/tokenizers</text>
  <text x="18" y="58" fill="#7F8796" font-family="system-ui, sans-serif" font-size="14">Speedup relative to elixir-nx/tokenizers, higher is better</text>
  <text x="18" y="100" fill="#D9E1F2" font-family="system-ui, sans-serif" font-size="14">LiquidAI/LFM2.5-1.2B-Instruct</text>
<rect x="330" y="78" width="208.01" height="16" rx="4" fill="#5A9BF6" />
<text x="548.0091181059532" y="91" fill="#A7B0C3" font-family="system-ui, sans-serif" font-size="12">4.8x oneshot</text>
<rect x="330" y="100" width="610.0" height="16" rx="4" fill="#35C296" />
<text x="950.0" y="113" fill="#A7B0C3" font-family="system-ui, sans-serif" font-size="12">14.0x stream</text>


<text x="18" y="158" fill="#D9E1F2" font-family="system-ui, sans-serif" font-size="14">Qwen/Qwen3.5-9B</text>
<rect x="330" y="136" width="246.21" height="16" rx="4" fill="#5A9BF6" />
<text x="586.2099735198001" y="149" fill="#A7B0C3" font-family="system-ui, sans-serif" font-size="12">5.6x oneshot</text>
<rect x="330" y="158" width="275.97" height="16" rx="4" fill="#35C296" />
<text x="615.97185621678" y="171" fill="#A7B0C3" font-family="system-ui, sans-serif" font-size="12">6.3x stream</text>


<text x="18" y="216" fill="#D9E1F2" font-family="system-ui, sans-serif" font-size="14">zai-org/GLM-5.1</text>
<rect x="330" y="194" width="222.39" height="16" rx="4" fill="#5A9BF6" />
<text x="562.38624246566" y="207" fill="#A7B0C3" font-family="system-ui, sans-serif" font-size="12">5.1x oneshot</text>
<rect x="330" y="216" width="429.18" height="16" rx="4" fill="#35C296" />
<text x="769.1838027013127" y="229" fill="#A7B0C3" font-family="system-ui, sans-serif" font-size="12">9.8x stream</text>


<text x="18" y="274" fill="#D9E1F2" font-family="system-ui, sans-serif" font-size="14">mistralai/Ministral-3-3B-Reasoning-2512</text>
<rect x="330" y="252" width="218.02" height="16" rx="4" fill="#5A9BF6" />
<text x="558.0182961582269" y="265" fill="#A7B0C3" font-family="system-ui, sans-serif" font-size="12">5.0x oneshot</text>
<rect x="330" y="274" width="415.25" height="16" rx="4" fill="#35C296" />
<text x="755.2511464560762" y="287" fill="#A7B0C3" font-family="system-ui, sans-serif" font-size="12">9.5x stream</text>


<text x="18" y="332" fill="#D9E1F2" font-family="system-ui, sans-serif" font-size="14">google/gemma-4-31B-it</text>
<rect x="330" y="310" width="69.81" height="16" rx="4" fill="#5A9BF6" />
<text x="409.8136312914661" y="323" fill="#A7B0C3" font-family="system-ui, sans-serif" font-size="12">1.6x oneshot</text>
<rect x="330" y="332" width="235.29" height="16" rx="4" fill="#35C296" />
<text x="575.2852797093085" y="345" fill="#A7B0C3" font-family="system-ui, sans-serif" font-size="12">5.4x stream</text>


</svg>
