<svg xmlns="http://www.w3.org/2000/svg" width="1280" height="308" viewBox="0 0 1280 308">
  <rect width="1280" height="308" rx="10" fill="#0E1118" />
  <text x="18" y="36" fill="#F7FAFF" font-family="system-ui, sans-serif" font-size="22">SentencePiece model encode latency</text>
  <text x="18" y="62" fill="#7F8796" font-family="system-ui, sans-serif" font-size="14">IREE .model loader vs elixir-nx/tokenizers tokenizer.json, lower is better</text>
  <rect x="18" y="76" width="14" height="14" rx="3" fill="#5A9BF6" />
<text x="40" y="88" fill="#D9E1F2" font-family="system-ui, sans-serif" font-size="13">IREE.Tokenizers (.model)</text>
<rect x="188" y="76" width="14" height="14" rx="3" fill="#FF914D" />
<text x="210" y="88" fill="#D9E1F2" font-family="system-ui, sans-serif" font-size="13">elixir-nx/tokenizers</text>

  <text x="18" y="140" fill="#D9E1F2" font-family="system-ui, sans-serif" font-size="15">T5-small (SentencePiece Unigram)</text>
<text x="18" y="160" fill="#7F8796" font-family="system-ui, sans-serif" font-size="12">52 bytes, 10 ids</text>
<rect x="320" y="116" width="246.86" height="16" rx="4" fill="#5A9BF6" />
<text x="576.8571428571429" y="129" text-anchor="start" fill="#A7B0C3" font-family="system-ui, sans-serif" font-size="12">12.0 μs</text>
<rect x="320" y="142" width="720.0" height="16" rx="4" fill="#FF914D" />
<text x="1030.0" y="155" text-anchor="end" fill="#F7FAFF" font-family="system-ui, sans-serif" font-size="12">35.0 μs</text>
<text x="1240" y="140" fill="#D9E1F2" font-family="system-ui, sans-serif" font-size="13" text-anchor="end">2.92x</text>
<text x="1160" y="158" fill="#7F8796" font-family="system-ui, sans-serif" font-size="11" text-anchor="end">IREE speedup</text>

<text x="18" y="218" fill="#D9E1F2" font-family="system-ui, sans-serif" font-size="15">LLaMA tokenizer (SentencePiece BPE)</text>
<text x="18" y="238" fill="#7F8796" font-family="system-ui, sans-serif" font-size="12">44 bytes, 12 ids</text>
<rect x="320" y="194" width="308.57" height="16" rx="4" fill="#5A9BF6" />
<text x="638.5714285714284" y="207" text-anchor="start" fill="#A7B0C3" font-family="system-ui, sans-serif" font-size="12">15.0 μs</text>
<rect x="320" y="220" width="329.14" height="16" rx="4" fill="#FF914D" />
<text x="659.1428571428571" y="233" text-anchor="start" fill="#A7B0C3" font-family="system-ui, sans-serif" font-size="12">16.0 μs</text>
<text x="1240" y="218" fill="#D9E1F2" font-family="system-ui, sans-serif" font-size="13" text-anchor="end">1.07x</text>
<text x="1160" y="236" fill="#7F8796" font-family="system-ui, sans-serif" font-size="11" text-anchor="end">IREE speedup</text>

</svg>
