<svg xmlns="http://www.w3.org/2000/svg" width="1360" height="308" viewBox="0 0 1360 308">
  <rect width="1360" height="308" rx="10" fill="#0E1118" />
  <text x="18" y="36" fill="#F7FAFF" font-family="system-ui, sans-serif" font-size="22">SentencePiece model encode latency</text>
  <text x="18" y="62" fill="#7F8796" font-family="system-ui, sans-serif" font-size="14">IREE .model loader vs elixir-nx/tokenizers tokenizer.json, lower is better</text>
  <rect x="18" y="76" width="14" height="14" rx="3" fill="#5A9BF6" />
<text x="40" y="88" fill="#D9E1F2" font-family="system-ui, sans-serif" font-size="13">IREE.Tokenizers (.model)</text>
<rect x="188" y="76" width="14" height="14" rx="3" fill="#FF914D" />
<text x="210" y="88" fill="#D9E1F2" font-family="system-ui, sans-serif" font-size="13">elixir-nx/tokenizers</text>

  <text x="18" y="140" fill="#D9E1F2" font-family="system-ui, sans-serif" font-size="15">T5-small (SentencePiece Unigram)</text>
<text x="18" y="160" fill="#7F8796" font-family="system-ui, sans-serif" font-size="12">52 bytes, 10 ids</text>
<rect x="320" y="116" width="237.5" height="16" rx="4" fill="#5A9BF6" />
<text x="567.5" y="129" text-anchor="start" fill="#A7B0C3" font-family="system-ui, sans-serif" font-size="12">10.0 μs</text>
<rect x="320" y="142" width="760.0" height="16" rx="4" fill="#FF914D" />
<text x="1070.0" y="155" text-anchor="end" fill="#F7FAFF" font-family="system-ui, sans-serif" font-size="12">32.0 μs</text>
<text x="1320" y="140" fill="#D9E1F2" font-family="system-ui, sans-serif" font-size="13" text-anchor="end">3.2x</text>
<text x="1240" y="158" fill="#7F8796" font-family="system-ui, sans-serif" font-size="11" text-anchor="end">IREE speedup</text>

<text x="18" y="218" fill="#D9E1F2" font-family="system-ui, sans-serif" font-size="15">LLaMA tokenizer (SentencePiece BPE)</text>
<text x="18" y="238" fill="#7F8796" font-family="system-ui, sans-serif" font-size="12">44 bytes, 12 ids</text>
<rect x="320" y="194" width="427.5" height="16" rx="4" fill="#5A9BF6" />
<text x="757.5" y="207" text-anchor="start" fill="#A7B0C3" font-family="system-ui, sans-serif" font-size="12">18.0 μs</text>
<rect x="320" y="220" width="166.25" height="16" rx="4" fill="#FF914D" />
<text x="496.25" y="233" text-anchor="start" fill="#A7B0C3" font-family="system-ui, sans-serif" font-size="12">7.0 μs</text>
<text x="1320" y="218" fill="#D9E1F2" font-family="system-ui, sans-serif" font-size="13" text-anchor="end">0.39x</text>
<text x="1240" y="236" fill="#7F8796" font-family="system-ui, sans-serif" font-size="11" text-anchor="end">IREE speedup</text>

</svg>
