<svg xmlns="http://www.w3.org/2000/svg" width="1360" height="386" viewBox="0 0 1360 386">
  <rect width="1360" height="386" rx="10" fill="#0E1118" />
  <text x="18" y="36" fill="#F7FAFF" font-family="system-ui, sans-serif" font-size="22">IREE vs tokenizers decode latency</text>
  <text x="18" y="62" fill="#7F8796" font-family="system-ui, sans-serif" font-size="14">Local minimal BPE fixture, lower is better</text>
  <rect x="18" y="76" width="14" height="14" rx="3" fill="#5A9BF6" />
<text x="40" y="88" fill="#D9E1F2" font-family="system-ui, sans-serif" font-size="13">IREE.Tokenizers</text>
<rect x="188" y="76" width="14" height="14" rx="3" fill="#FF914D" />
<text x="210" y="88" fill="#D9E1F2" font-family="system-ui, sans-serif" font-size="13">elixir-nx/tokenizers</text>

  <text x="18" y="140" fill="#D9E1F2" font-family="system-ui, sans-serif" font-size="15">Short</text>
<text x="18" y="160" fill="#7F8796" font-family="system-ui, sans-serif" font-size="12">4 shared ids decoded</text>
<rect x="320" y="116" width="1.09" height="16" rx="4" fill="#5A9BF6" />
<text x="331.0900785491096" y="129" text-anchor="start" fill="#A7B0C3" font-family="system-ui, sans-serif" font-size="12">3.8 μs</text>
<rect x="320" y="142" width="1.19" height="16" rx="4" fill="#FF914D" />
<text x="331.1886197764047" y="155" text-anchor="start" fill="#A7B0C3" font-family="system-ui, sans-serif" font-size="12">4.1 μs</text>
<text x="1320" y="140" fill="#D9E1F2" font-family="system-ui, sans-serif" font-size="13" text-anchor="end">1.09x</text>
<text x="1240" y="158" fill="#7F8796" font-family="system-ui, sans-serif" font-size="11" text-anchor="end">IREE speedup</text>

<text x="18" y="218" fill="#D9E1F2" font-family="system-ui, sans-serif" font-size="15">Medium</text>
<text x="18" y="238" fill="#7F8796" font-family="system-ui, sans-serif" font-size="12">1680 shared ids decoded</text>
<rect x="320" y="194" width="5.64" height="16" rx="4" fill="#5A9BF6" />
<text x="335.63964929799334" y="207" text-anchor="start" fill="#A7B0C3" font-family="system-ui, sans-serif" font-size="12">19.6 μs</text>
<rect x="320" y="220" width="61.71" height="16" rx="4" fill="#FF914D" />
<text x="391.70903287154187" y="233" text-anchor="start" fill="#A7B0C3" font-family="system-ui, sans-serif" font-size="12">214.5 μs</text>
<text x="1320" y="218" fill="#D9E1F2" font-family="system-ui, sans-serif" font-size="13" text-anchor="end">10.94x</text>
<text x="1240" y="236" fill="#7F8796" font-family="system-ui, sans-serif" font-size="11" text-anchor="end">IREE speedup</text>

<text x="18" y="296" fill="#D9E1F2" font-family="system-ui, sans-serif" font-size="15">Long</text>
<text x="18" y="316" fill="#7F8796" font-family="system-ui, sans-serif" font-size="12">30720 shared ids decoded</text>
<rect x="320" y="272" width="75.87" height="16" rx="4" fill="#5A9BF6" />
<text x="405.873978369911" y="285" text-anchor="start" fill="#A7B0C3" font-family="system-ui, sans-serif" font-size="12">263.7 μs</text>
<rect x="320" y="298" width="760.0" height="16" rx="4" fill="#FF914D" />
<text x="1070.0" y="311" text-anchor="end" fill="#F7FAFF" font-family="system-ui, sans-serif" font-size="12">2.64 ms</text>
<text x="1320" y="296" fill="#D9E1F2" font-family="system-ui, sans-serif" font-size="13" text-anchor="end">10.02x</text>
<text x="1240" y="314" fill="#7F8796" font-family="system-ui, sans-serif" font-size="11" text-anchor="end">IREE speedup</text>

</svg>
