<svg xmlns="http://www.w3.org/2000/svg" width="1120" height="348" viewBox="0 0 1120 348">
  <rect width="1120" height="348" rx="10" fill="#0E1118" />
  <text x="18" y="36" fill="#F7FAFF" font-family="system-ui, sans-serif" font-size="22">IREE vs tokenizers decode latency</text>
  <text x="18" y="62" fill="#7F8796" font-family="system-ui, sans-serif" font-size="14">Local minimal BPE fixture, lower is better</text>
  <rect x="280" y="24" width="14" height="14" rx="3" fill="#35C296" />
<text x="302" y="36" fill="#D9E1F2" font-family="system-ui, sans-serif" font-size="13">IREE.Tokenizers</text>
<rect x="420" y="24" width="14" height="14" rx="3" fill="#FF914D" />
<text x="442" y="36" fill="#D9E1F2" font-family="system-ui, sans-serif" font-size="13">elixir-nx/tokenizers</text>

  <text x="18" y="120" fill="#D9E1F2" font-family="system-ui, sans-serif" font-size="15">Short</text>
<text x="18" y="140" fill="#7F8796" font-family="system-ui, sans-serif" font-size="12">4 / 4 ids decoded</text>
<rect x="280" y="96" width="1.52" height="16" rx="4" fill="#35C296" />
<text x="291.5175097276265" y="109" fill="#A7B0C3" font-family="system-ui, sans-serif" font-size="12">4.0 μs</text>
<rect x="280" y="122" width="0.76" height="16" rx="4" fill="#FF914D" />
<text x="290.75875486381324" y="135" fill="#A7B0C3" font-family="system-ui, sans-serif" font-size="12">2.0 μs</text>
<text x="1000" y="120" fill="#D9E1F2" font-family="system-ui, sans-serif" font-size="13" text-anchor="end">0.5x</text>
<text x="1000" y="138" fill="#7F8796" font-family="system-ui, sans-serif" font-size="11" text-anchor="end">IREE speedup</text>

<text x="18" y="192" fill="#D9E1F2" font-family="system-ui, sans-serif" font-size="15">Medium</text>
<text x="18" y="212" fill="#7F8796" font-family="system-ui, sans-serif" font-size="12">920 / 1680 ids decoded</text>
<rect x="280" y="168" width="3.04" height="16" rx="4" fill="#35C296" />
<text x="293.0350194552529" y="181" fill="#A7B0C3" font-family="system-ui, sans-serif" font-size="12">8.0 μs</text>
<rect x="280" y="194" width="48.94" height="16" rx="4" fill="#FF914D" />
<text x="338.9396887159533" y="207" fill="#A7B0C3" font-family="system-ui, sans-serif" font-size="12">129.0 μs</text>
<text x="1000" y="192" fill="#D9E1F2" font-family="system-ui, sans-serif" font-size="13" text-anchor="end">16.13x</text>
<text x="1000" y="210" fill="#7F8796" font-family="system-ui, sans-serif" font-size="11" text-anchor="end">IREE speedup</text>

<text x="18" y="264" fill="#D9E1F2" font-family="system-ui, sans-serif" font-size="15">Long</text>
<text x="18" y="284" fill="#7F8796" font-family="system-ui, sans-serif" font-size="12">16016 / 30720 ids decoded</text>
<rect x="280" y="240" width="53.11" height="16" rx="4" fill="#35C296" />
<text x="343.11284046692606" y="253" fill="#A7B0C3" font-family="system-ui, sans-serif" font-size="12">140.0 μs</text>
<rect x="280" y="266" width="780.0" height="16" rx="4" fill="#FF914D" />
<text x="1070.0" y="279" fill="#A7B0C3" font-family="system-ui, sans-serif" font-size="12">2.06 ms</text>
<text x="1000" y="264" fill="#D9E1F2" font-family="system-ui, sans-serif" font-size="13" text-anchor="end">14.69x</text>
<text x="1000" y="282" fill="#7F8796" font-family="system-ui, sans-serif" font-size="11" text-anchor="end">IREE speedup</text>

</svg>
